<svg width="1892" height="2257" viewBox="0 0 1892 2257" fill="none" xmlns="http://www.w3.org/2000/svg">
<path d="M1171.14 2006.85V1797.29L1657.92 1658.04L1790.08 1891.04L1171.14 2006.85ZM1282.37 2077.17L929.063 2124.04V1052.79L1194.7 1168.6L1196.01 1771.09L1150.21 1773.85V2053.73H1282.37V2077.17ZM1312.47 1733.87L1213.02 1768.34L1214.33 1215.47L1311.16 1251.32L1312.47 1733.87ZM884.573 1005.91V1029.35L752.41 959.034L620.248 1098.28V1983.42L443.595 1913.1L134.78 1983.42L45.7989 2053.73C68.0441 1983.42 90.2893 1937.92 112.534 1867.6L950 353.781L1643.53 1623.57L1325.55 1726.98V1237.53L1214.33 1190.66V1143.78L884.573 1005.91ZM755.028 2192.98V1007.29L883.264 1074.85V2169.54V2192.98H755.028ZM442.286 2169.54V1959.98L596.694 2030.29V2169.54H442.286ZM176.653 2169.54V2006.85L420.041 1959.98V2169.54H176.653ZM1723.35 1425.04L950 -204.596L176.653 1425.04C111.226 1550.5 53.6501 1558.77 0 1425.04V2256.88H1900V2192.98L927.755 2169.54V2146.1L1855.51 2030.29L1900 2192.98V1425.04C1834.57 1564.29 1790.08 1564.29 1723.35 1425.04Z" fill="#EDF0F4"/>
</svg>
