<svg width="180" height="73" viewBox="0 0 180 73" fill="none" xmlns="http://www.w3.org/2000/svg">
<g id="logo">
<g id="Group">
<path id="Vector" d="M144.826 65.1294V72.7812H145.852V65.1294H148.818V64.1412H141.86V65.1294H144.826ZM140.835 72.7812V71.7929H136.954V68.9129H140.336V67.9247H136.954V65.1294H140.724V64.1412H135.929V72.7812H140.835ZM130.413 65.1294V72.7812H131.438V65.1294H134.404V64.1412H127.447V65.1294H130.413ZM124.897 65.8635V72.7812H125.923V64.1412H125.008L119.852 71.0588V64.1412H118.827V72.7812H119.741L124.897 65.8635ZM114.503 71.9059C113.505 71.9059 112.729 71.5953 112.119 70.9459C111.509 70.2965 111.204 69.4776 111.204 68.4329C111.204 67.4165 111.509 66.5694 112.091 65.9482C112.673 65.2988 113.422 64.9882 114.364 64.9882C115.196 64.9882 115.889 65.2141 116.471 65.6376L116.942 64.8471C116.304 64.2824 115.445 64 114.364 64C113.061 64 112.036 64.4235 111.288 65.2706C110.511 66.1176 110.151 67.1624 110.151 68.4612C110.151 69.7882 110.539 70.8894 111.343 71.68C112.147 72.4988 113.172 72.8941 114.447 72.8941C114.974 72.8941 115.501 72.8094 115.972 72.64C116.471 72.4706 116.831 72.2447 117.136 71.9341L116.72 71.1435C116.055 71.6518 115.334 71.9059 114.503 71.9059ZM107.296 65.5247C107.629 65.8353 107.795 66.2306 107.795 66.7671C107.795 67.3035 107.629 67.7271 107.268 68.0376C106.908 68.3482 106.437 68.4894 105.799 68.4894C105.439 68.4894 105.023 68.4612 104.552 68.4329V65.1012C105.079 65.0729 105.522 65.0729 105.827 65.0729C106.492 65.1012 106.964 65.2424 107.296 65.5247ZM104.552 69.4494C104.94 69.4776 105.356 69.5059 105.827 69.5059C106.797 69.5059 107.546 69.2518 108.1 68.7153C108.627 68.1788 108.904 67.5576 108.904 66.7953C108.904 66.0329 108.654 65.3835 108.183 64.8753C107.684 64.3671 106.88 64.1129 105.772 64.1129C105.578 64.1129 105.217 64.1129 104.635 64.1129C104.053 64.1129 103.693 64.1129 103.554 64.1129V72.7529H104.58V69.4494H104.552ZM101.337 72.7812V71.7929H97.4563V68.9129H100.838V67.9247H97.4563V65.1294H101.226V64.1412H96.4307V72.7812H101.337ZM92.8551 66.4565C92.8551 66.9082 92.6888 67.2753 92.3839 67.5294C92.079 67.7835 91.691 67.9247 91.2198 67.9247H89.8616V65.1294C90.4714 65.1012 90.8871 65.1012 91.1366 65.1012C92.273 65.0729 92.8551 65.5529 92.8551 66.4565ZM92.6611 69.1953C92.9937 69.4494 93.16 69.7882 93.16 70.24C93.16 70.7482 92.9937 71.1435 92.6334 71.4259C92.3008 71.68 91.8018 71.8212 91.1643 71.8212C90.6654 71.8212 90.2219 71.7929 89.8616 71.7647V68.8282H91.2198C91.8296 68.8282 92.3008 68.9694 92.6611 69.1953ZM91.1089 72.8094C92.0513 72.8094 92.772 72.6118 93.354 72.1882C93.9084 71.7647 94.1856 71.1435 94.1856 70.2965C94.1856 69.7318 94.0193 69.2518 93.7144 68.9129C93.4095 68.5741 92.966 68.3482 92.4394 68.2635V68.2353C92.8828 68.0941 93.2154 67.84 93.4926 67.5012C93.7698 67.1624 93.8807 66.7388 93.8807 66.2306C93.8807 65.5812 93.6589 65.0729 93.2432 64.6776C92.7997 64.2824 92.1067 64.0847 91.1643 64.0847C90.8871 64.0847 90.111 64.1129 88.836 64.1412V72.7529C89.4735 72.7812 90.2496 72.8094 91.1089 72.8094ZM85.1218 65.8635V72.7812H86.1474V64.1412H85.2327L80.1049 71.0588V64.1412H79.0793V72.7812H79.994L85.1218 65.8635ZM76.3907 72.7812V64.1412H75.3651V67.8682H70.7085V64.1412H69.683V72.7812H70.7085V68.8565H75.3651V72.7812H76.3907ZM67.0498 64.1412L64.7215 69.5624L61.5616 64.1412H60.3975L64.2503 70.6071L64.1117 70.9176C63.8345 71.5106 63.5019 71.7929 63.0584 71.7929C62.8366 71.7929 62.6149 71.7082 62.3932 71.5671L62.0328 72.4424C62.2823 72.64 62.6426 72.7529 63.0584 72.7529C63.5019 72.7529 63.8899 72.5835 64.2225 72.2729C64.5551 71.9624 64.86 71.4541 65.1649 70.7765L68.103 64.1129H67.0498V64.1412Z" fill="white"/>
<path id="Vector_2" d="M155.996 48.4712C156.412 48.7536 156.911 48.8947 157.549 48.8947C158.131 48.8947 158.63 48.7536 159.045 48.4712C159.461 48.1889 159.711 47.8218 159.766 47.3418H158.796C158.685 47.8783 158.269 48.1324 157.549 48.1324C156.883 48.1324 156.44 47.8783 156.246 47.3418H155.276C155.331 47.7936 155.581 48.1889 155.996 48.4712ZM159.96 51.0406V57.9583H160.986V49.3183H160.071L154.943 56.2359V49.3183H153.918V57.9583H154.832L159.96 51.0406ZM143.551 49.3183V57.9583C143.69 57.9583 143.995 57.9583 144.438 57.9583C144.882 57.9583 145.214 57.9583 145.491 57.9583C146.545 57.9583 147.376 57.7042 147.958 57.2242C148.54 56.7159 148.845 56.0383 148.845 55.1065C148.845 54.2594 148.596 53.61 148.069 53.13C147.543 52.65 146.766 52.4241 145.713 52.4241C145.464 52.4241 145.103 52.4524 144.577 52.4806V49.2618H143.551V49.3183ZM147.21 53.8924C147.57 54.1747 147.764 54.5983 147.764 55.163C147.764 56.3771 147.044 56.9983 145.602 56.9983C145.575 56.9983 145.242 56.9983 144.577 56.97V53.5253C144.992 53.4689 145.353 53.4406 145.63 53.4406C146.323 53.4689 146.85 53.61 147.21 53.8924ZM151.257 49.3183H150.231V57.9583H151.257V49.3183ZM140.89 57.9583V49.3183H139.865V53.0453H135.208V49.3183H134.155V57.9583H135.18V54.0336H139.837V57.9583H140.89ZM126.754 49.3183V57.9583C126.893 57.9583 127.198 57.9583 127.669 57.9583C128.14 57.9583 128.5 57.9583 128.75 57.9583C129.831 57.9583 130.662 57.7042 131.272 57.2242C131.882 56.7159 132.187 56.0383 132.187 55.1065C132.187 54.2594 131.91 53.61 131.383 53.13C130.856 52.65 130.053 52.4241 128.972 52.4241C128.694 52.4241 128.279 52.4524 127.78 52.4806V49.2618H126.754V49.3183ZM130.496 53.8924C130.884 54.1747 131.078 54.5983 131.078 55.163C131.078 55.7841 130.884 56.2359 130.496 56.5465C130.108 56.8571 129.554 56.9983 128.861 56.9983C128.805 56.9983 128.445 56.9983 127.78 56.97V53.5253C128.195 53.4689 128.583 53.4406 128.888 53.4406C129.581 53.4689 130.108 53.61 130.496 53.8924ZM124.065 57.9583V49.3183H118.993L118.882 51.0406C118.799 52.1136 118.716 53.0453 118.577 53.8077C118.439 54.57 118.328 55.163 118.189 55.5583C118.051 55.9536 117.912 56.2641 117.718 56.49C117.524 56.7159 117.385 56.8289 117.275 56.8853C117.164 56.9136 117.025 56.9418 116.859 56.9136V57.9583C117.164 57.9865 117.413 57.9865 117.635 57.93C117.857 57.8736 118.106 57.7324 118.328 57.4783C118.577 57.2524 118.771 56.9136 118.965 56.4618C119.132 56.0383 119.298 55.4171 119.464 54.6547C119.603 53.8924 119.741 52.9889 119.852 51.9159L119.991 50.2783H123.068V57.93H124.065V57.9583ZM115.639 57.9583V56.97H111.759V54.09H115.14V53.1018H111.759V50.3065H115.528V49.3183H110.733V57.9583H115.639ZM105.217 50.3065V57.9583H106.243V50.3065H109.209V49.3183H102.251V50.3065H105.217ZM99.7014 51.0406V57.9583H100.727V49.3183H99.8123L94.6845 56.2359V49.3183H93.6589V57.9583H94.5736L99.7014 51.0406ZM85.011 51.1536C85.6208 50.5041 86.3968 50.1653 87.3393 50.1653C88.2539 50.1653 89.03 50.5041 89.6398 51.1536C90.2496 51.803 90.5822 52.6218 90.5822 53.6383C90.5822 54.6265 90.2774 55.4453 89.6676 56.0947C89.0578 56.7442 88.2817 57.083 87.3393 57.083C86.4246 57.083 85.6485 56.7442 85.0387 56.0947C84.4289 55.4453 84.0963 54.5983 84.0963 53.6383C84.0963 52.65 84.4012 51.803 85.011 51.1536ZM84.2348 56.8289C85.0664 57.6477 86.092 58.0712 87.3393 58.0712C88.5866 58.0712 89.6121 57.6477 90.4159 56.8006C91.2475 55.9536 91.6632 54.9089 91.6632 53.61C91.6632 52.3112 91.2475 51.2383 90.4437 50.4194C89.6121 49.6006 88.5866 49.1771 87.3393 49.1771C86.092 49.1771 85.0387 49.6006 84.2348 50.4477C83.431 51.2947 83.0153 52.3677 83.0153 53.61C82.9875 54.9371 83.4033 56.01 84.2348 56.8289ZM80.188 50.73C80.5207 51.0124 80.6592 51.4359 80.6592 51.9724C80.6592 52.5089 80.4929 52.9324 80.1326 53.243C79.7723 53.5536 79.3011 53.6947 78.6636 53.6947C78.3032 53.6947 77.8875 53.6665 77.4162 53.6383V50.3065C77.9429 50.2783 78.3864 50.2783 78.6913 50.2783C79.3842 50.2783 79.8831 50.4194 80.188 50.73ZM77.444 54.6547C77.832 54.683 78.2478 54.7112 78.719 54.7112C79.6891 54.7112 80.4375 54.4571 80.9919 53.9206C81.5462 53.3842 81.7957 52.763 81.7957 52.0006C81.7957 51.2383 81.5462 50.5889 81.075 50.0806C80.5761 49.5724 79.7723 49.3183 78.6636 49.3183C78.4695 49.3183 78.1092 49.3183 77.5271 49.3183C76.945 49.3183 76.5847 49.3183 76.4461 49.3183V57.9583H77.4717V54.6547H77.444ZM70.9025 50.3065V57.9583H71.9281V50.3065H74.8939V49.3183H67.9367V50.3065H70.9025ZM64.7492 57.083C63.7513 57.083 62.9752 56.7724 62.3654 56.123C61.7556 55.4736 61.4507 54.6547 61.4507 53.61C61.4507 52.5936 61.7556 51.7465 62.3377 51.1253C62.9198 50.4759 63.6959 50.1653 64.6106 50.1653C65.4421 50.1653 66.1351 50.3912 66.7171 50.8147L67.1883 50.0241C66.5508 49.4594 65.6916 49.1771 64.6106 49.1771C63.3078 49.1771 62.2823 49.6006 61.5339 50.4477C60.7578 51.2947 60.3975 52.3394 60.3975 53.6383C60.3975 54.9936 60.7855 56.0665 61.5893 56.8571C62.3932 57.6759 63.4187 58.0712 64.6937 58.0712C65.2204 58.0712 65.747 57.9865 66.2182 57.8171C66.6894 57.6477 67.0775 57.4218 67.3824 57.1112L66.9666 56.3206C66.3014 56.8289 65.5807 57.083 64.7492 57.083Z" fill="white"/>
<path id="Vector_3" d="M174.983 33.647C175.399 33.9293 175.898 34.0705 176.536 34.0705C177.118 34.0705 177.617 33.9293 178.032 33.647C178.448 33.3646 178.698 32.9976 178.753 32.5176H177.783C177.672 33.054 177.256 33.3082 176.536 33.3082C175.87 33.3082 175.427 33.054 175.233 32.5176H174.263C174.346 32.9976 174.595 33.3646 174.983 33.647ZM178.975 36.2446V43.1623H180V34.494H179.086L173.93 41.4117V34.494H172.904V43.134H173.819L178.975 36.2446ZM162.76 34.494V43.134C162.898 43.134 163.203 43.134 163.647 43.134C164.09 43.134 164.423 43.134 164.7 43.134C165.753 43.134 166.585 42.8799 167.167 42.3999C167.749 41.8917 168.054 41.214 168.054 40.2823C168.054 39.4352 167.804 38.7858 167.278 38.3058C166.751 37.8258 165.975 37.5999 164.922 37.5999C164.672 37.5999 164.312 37.6282 163.785 37.6564V34.494H162.76ZM166.418 39.0682C166.779 39.3505 166.973 39.774 166.973 40.3388C166.973 41.5529 166.252 42.174 164.811 42.174C164.783 42.174 164.451 42.1741 163.785 42.1458V38.7011C164.201 38.6446 164.561 38.6164 164.839 38.6164C165.532 38.6446 166.058 38.7858 166.418 39.0682ZM170.465 34.494H169.44V43.134H170.465V34.494ZM160.321 43.134V34.494H159.295V38.2211H154.638V34.494H153.613V43.134H154.638V39.2093H159.295V43.134H160.321ZM151.146 43.134V34.494H150.12V38.2211H145.464V34.494H144.41V43.134H145.436V39.2093H150.093V43.134H151.146ZM142.47 43.134V42.1458H138.59V39.2658H141.971V38.2776H138.59V35.4823H142.359V34.494H137.564V43.134H142.47ZM134.21 36.8376C134.21 37.2893 134.044 37.6564 133.739 37.9105C133.434 38.1646 133.046 38.3058 132.575 38.3058H131.217V35.5105C131.827 35.4823 132.242 35.4823 132.492 35.4823C133.628 35.454 134.21 35.9058 134.21 36.8376ZM133.989 39.5764C134.321 39.8305 134.487 40.1693 134.487 40.6211C134.487 41.1293 134.321 41.5246 133.961 41.807C133.628 42.0611 133.129 42.2023 132.492 42.2023C131.993 42.2023 131.549 42.1741 131.189 42.1458V39.2093H132.547C133.185 39.2093 133.656 39.3223 133.989 39.5764ZM132.464 43.1905C133.406 43.1905 134.127 42.9929 134.709 42.5693C135.264 42.1458 135.541 41.5246 135.541 40.6776C135.541 40.1129 135.374 39.6329 135.07 39.294C134.765 38.9552 134.321 38.7293 133.795 38.6446V38.6164C134.238 38.4752 134.571 38.2211 134.848 37.8823C135.125 37.5435 135.236 37.1199 135.236 36.6117C135.236 35.9623 135.014 35.454 134.598 35.0588C134.155 34.6635 133.462 34.4658 132.52 34.4658C132.242 34.4658 131.466 34.494 130.191 34.5223V43.134C130.829 43.1623 131.605 43.1905 132.464 43.1905ZM124.869 35.4823V43.134H125.895V35.4823H128.888V34.494H121.931V35.4823H124.869ZM118.938 42.287C117.94 42.287 117.164 41.9764 116.554 41.327C115.944 40.6776 115.639 39.8588 115.639 38.814C115.639 37.7976 115.944 36.9505 116.526 36.3293C117.108 35.6799 117.884 35.3693 118.799 35.3693C119.631 35.3693 120.324 35.5952 120.906 36.0188L121.377 35.2282C120.739 34.6635 119.88 34.3811 118.799 34.3811C117.496 34.3811 116.471 34.8046 115.722 35.6517C114.974 36.4988 114.586 37.5435 114.586 38.8423C114.586 40.1976 114.974 41.2705 115.778 42.0611C116.582 42.8799 117.607 43.2752 118.882 43.2752C119.409 43.2752 119.936 43.1905 120.407 43.0211C120.906 42.8517 121.266 42.6258 121.571 42.3152L121.155 41.5246C120.49 42.0329 119.769 42.287 118.938 42.287ZM111.953 35.9058C112.285 36.1882 112.452 36.6117 112.452 37.1482C112.452 37.6846 112.285 38.1082 111.925 38.4188C111.565 38.7293 111.066 38.8705 110.456 38.8705C110.096 38.8705 109.68 38.8423 109.209 38.814V35.4823C109.735 35.454 110.179 35.454 110.484 35.454C111.149 35.4823 111.648 35.6235 111.953 35.9058ZM109.209 39.8305C109.597 39.8588 110.013 39.887 110.484 39.887C111.454 39.887 112.202 39.6329 112.757 39.0964C113.283 38.5599 113.56 37.9388 113.56 37.1764C113.56 36.414 113.311 35.7646 112.84 35.2564C112.341 34.7482 111.537 34.494 110.428 34.494C110.234 34.494 109.874 34.494 109.292 34.494C108.71 34.494 108.349 34.494 108.211 34.494V43.134H109.236V39.8305H109.209ZM104.22 39.5482H101.171L102.695 35.8493L104.22 39.5482ZM99.6738 43.134L100.755 40.5082H104.608L105.689 43.134H106.797L103.139 34.4376H102.279L98.6205 43.134H99.6738ZM93.0492 35.4823H96.015V42.1458H91.7188C91.9405 41.8917 92.1623 41.2988 92.4117 40.367C92.6612 39.4635 92.8552 38.334 92.9384 37.007L93.0492 35.4823ZM90.6378 44.7435V43.134H97.2346V44.7435H98.2048V42.1458H97.0406V34.494H92.0514L91.9682 36.2164C91.8851 37.7976 91.691 39.0964 91.4139 40.1129C91.109 41.1293 90.8318 41.807 90.5823 42.1176H89.6676V44.7152H90.6378V44.7435ZM89.1687 34.494L86.8404 39.9152L83.6806 34.494H82.5164L86.3692 40.9599L86.2306 41.2705C85.9534 41.8635 85.6208 42.1458 85.1773 42.1458C84.9556 42.1458 84.7339 42.0611 84.5121 41.9199L84.1518 42.7952C84.4012 42.9929 84.7616 43.1058 85.1773 43.1058C85.6208 43.1058 86.0089 42.9364 86.3415 42.6258C86.6741 42.3152 86.979 41.807 87.2839 41.1293L90.222 34.4658H89.1687V34.494ZM79.7446 42.287C78.7468 42.287 77.9707 41.9764 77.3609 41.327C76.7511 40.6776 76.4462 39.8588 76.4462 38.814C76.4462 37.7976 76.7511 36.9505 77.3332 36.3293C77.9153 35.6799 78.6914 35.3693 79.606 35.3693C80.4376 35.3693 81.1305 35.5952 81.7126 36.0188L82.1838 35.2282C81.5463 34.6635 80.687 34.3811 79.606 34.3811C78.3033 34.3811 77.2777 34.8046 76.5294 35.6517C75.7533 36.4988 75.3929 37.5435 75.3929 38.8423C75.3929 40.1976 75.781 41.2705 76.5848 42.0611C77.3886 42.8799 78.4142 43.2752 79.6892 43.2752C80.2158 43.2752 80.7425 43.1905 81.2137 43.0211C81.7126 42.8517 82.0729 42.6258 82.3778 42.3152L81.9621 41.5246C81.2968 42.0329 80.5762 42.287 79.7446 42.287ZM67.5765 36.3576C68.1863 35.7082 68.9624 35.3693 69.9048 35.3693C70.8195 35.3693 71.5956 35.7082 72.2054 36.3576C72.8152 37.007 73.1478 37.8258 73.1478 38.8423C73.1478 39.8305 72.8429 40.6493 72.2331 41.2988C71.6233 41.9482 70.8472 42.287 69.9048 42.287C68.9901 42.287 68.214 41.9482 67.6042 41.2988C66.9944 40.6493 66.6618 39.8023 66.6618 38.8423C66.6618 37.8258 66.9667 37.007 67.5765 36.3576ZM66.8004 42.0329C67.6319 42.8517 68.6575 43.2752 69.9048 43.2752C71.1521 43.2752 72.1776 42.8517 72.9815 42.0046C73.813 41.1576 74.2288 40.1129 74.2288 38.814C74.2288 37.5152 73.813 36.4423 73.0092 35.6235C72.1776 34.8046 71.1521 34.3811 69.9048 34.3811C68.6575 34.3811 67.6319 34.8046 66.8004 35.6517C65.9688 36.4988 65.5808 37.5717 65.5808 38.814C65.5808 40.1129 65.9688 41.1858 66.8004 42.0329ZM61.5617 43.134V35.4823H65.2482V34.494H60.5361V43.134H61.5617Z" fill="white"/>
<path id="Vector_4" d="M142.581 18.8247C142.997 19.1071 143.496 19.2483 144.133 19.2483C144.715 19.2483 145.214 19.1071 145.63 18.8247C146.046 18.5424 146.295 18.1753 146.351 17.6953H145.381C145.27 18.2318 144.854 18.4859 144.133 18.4859C143.468 18.4859 143.025 18.2318 142.831 17.6953H141.86C141.916 18.1753 142.165 18.5424 142.581 18.8247ZM146.545 21.4224V28.34H147.57V19.7H146.656L141.5 26.6177V19.7H140.475V28.34H141.389L146.545 21.4224ZM136.816 21.4224V28.34H137.841V19.7H136.927L131.771 26.6177V19.7H130.746V28.34H131.66L136.816 21.4224ZM123.733 19.7H122.707V28.34H123.733V19.7ZM127.669 19.7L123.955 23.8224L127.807 28.34H129.138L125.119 23.7659L128.888 19.7H127.669ZM118.383 27.4647C117.386 27.4647 116.609 27.1541 116 26.5047C115.39 25.8553 115.085 25.0365 115.085 23.9918C115.085 22.9753 115.39 22.1283 115.972 21.5071C116.554 20.8859 117.33 20.5471 118.245 20.5471C119.076 20.5471 119.769 20.773 120.351 21.1965L120.823 20.4059C120.185 19.8412 119.326 19.5588 118.245 19.5588C116.942 19.5588 115.916 19.9824 115.168 20.8294C114.392 21.6765 114.032 22.7212 114.032 24.02C114.032 25.3753 114.42 26.4483 115.224 27.2388C116.027 28.0577 117.053 28.453 118.328 28.453C118.855 28.453 119.381 28.3683 119.852 28.1988C120.351 28.0294 120.712 27.8035 121.017 27.493L120.601 26.7024C119.936 27.2106 119.215 27.4647 118.383 27.4647ZM111.066 22.0153C111.066 22.4671 110.9 22.8341 110.595 23.0883C110.29 23.3424 109.902 23.4835 109.43 23.4835H108.072V20.6883C108.682 20.66 109.098 20.66 109.347 20.66C110.484 20.6318 111.066 21.1118 111.066 22.0153ZM110.872 24.7541C111.204 25.0083 111.371 25.3471 111.371 25.7988C111.371 26.3071 111.204 26.7024 110.844 26.9847C110.511 27.2388 110.013 27.38 109.375 27.38C108.876 27.38 108.433 27.3518 108.072 27.3235V24.3871H109.43C110.04 24.3871 110.539 24.5283 110.872 24.7541ZM109.32 28.3683C110.262 28.3683 110.983 28.1706 111.565 27.7471C112.119 27.3235 112.396 26.7024 112.396 25.8553C112.396 25.2906 112.23 24.8106 111.925 24.4718C111.62 24.133 111.177 23.9071 110.65 23.8224V23.7941C111.094 23.653 111.426 23.3988 111.703 23.06C111.981 22.7212 112.091 22.2977 112.091 21.7894C112.091 21.14 111.87 20.6318 111.454 20.2365C111.01 19.8412 110.317 19.6435 109.375 19.6435C109.07 19.6435 108.322 19.6718 107.047 19.7V28.3118C107.712 28.3683 108.46 28.3683 109.32 28.3683ZM98.3988 21.5353C99.0086 20.8859 99.7847 20.5471 100.727 20.5471C101.642 20.5471 102.418 20.8859 103.028 21.5353C103.637 22.1847 103.97 23.0035 103.97 24.02C103.97 25.0083 103.665 25.8271 103.055 26.4765C102.446 27.1259 101.669 27.4647 100.727 27.4647C99.8124 27.4647 99.0363 27.1259 98.4265 26.4765C97.8167 25.8271 97.4841 24.98 97.4841 24.02C97.4841 23.0035 97.789 22.1847 98.3988 21.5353ZM97.6227 27.2106C98.4542 28.0294 99.4798 28.453 100.727 28.453C101.974 28.453 103 28.0294 103.804 27.1824C104.635 26.3353 105.051 25.2906 105.051 23.9918C105.051 22.693 104.635 21.62 103.831 20.8012C103 19.9824 101.974 19.5588 100.727 19.5588C99.4798 19.5588 98.4265 19.9824 97.6227 20.8294C96.8189 21.6765 96.4031 22.7494 96.4031 23.9918C96.3754 25.3188 96.7911 26.3918 97.6227 27.2106ZM90.5546 19.7H89.5291V28.34H90.5546V19.7ZM94.4906 19.7L90.7764 23.8224L94.6291 28.34H95.9596L91.9405 23.7659L95.7101 19.7H94.4906ZM85.1773 27.4647C84.1795 27.4647 83.4034 27.1541 82.7936 26.5047C82.1838 25.8553 81.8789 25.0365 81.8789 23.9918C81.8789 22.9753 82.1838 22.1283 82.7659 21.5071C83.348 20.8577 84.1241 20.5471 85.0387 20.5471C85.8703 20.5471 86.5632 20.773 87.1453 21.1965L87.6165 20.4059C86.979 19.8412 86.1197 19.5588 85.0387 19.5588C83.736 19.5588 82.7105 19.9824 81.9621 20.8294C81.186 21.6765 80.8256 22.7212 80.8256 24.02C80.8256 25.3753 81.2137 26.4483 82.0175 27.2388C82.8213 28.0577 83.8469 28.453 85.1219 28.453C85.6485 28.453 86.1752 28.3683 86.6464 28.1988C87.1453 28.0294 87.5056 27.8035 87.8105 27.493L87.3948 26.7024C86.7573 27.2106 86.0366 27.4647 85.1773 27.4647ZM72.8152 21.5353C73.425 20.8859 74.2011 20.5471 75.1435 20.5471C76.0582 20.5471 76.8343 20.8859 77.444 21.5353C78.0538 22.1847 78.3865 23.0035 78.3865 24.02C78.3865 25.0083 78.0816 25.8271 77.4718 26.4765C76.862 27.1259 76.0859 27.4647 75.1435 27.4647C74.2288 27.4647 73.4527 27.1259 72.8429 26.4765C72.2331 25.8271 71.9005 24.98 71.9005 24.02C71.9005 23.0035 72.2054 22.1847 72.8152 21.5353ZM72.0391 27.2106C72.8706 28.0294 73.8962 28.453 75.1435 28.453C76.3908 28.453 77.4163 28.0294 78.2202 27.1824C79.0517 26.3353 79.4675 25.2906 79.4675 23.9918C79.4675 22.693 79.0517 21.62 78.2479 20.8012C77.4163 19.9824 76.3908 19.5588 75.1435 19.5588C73.8962 19.5588 72.8706 19.9824 72.0391 20.8294C71.2352 21.6765 70.8195 22.7494 70.8195 23.9918C70.8195 25.3188 71.2075 26.3918 72.0391 27.2106ZM61.5617 28.34V21.3941L64.6107 25.6577H64.777L67.7705 21.3659V28.34H68.7961V19.7H67.8259L64.777 24.133L61.5894 19.7H60.5361V28.34H61.5617Z" fill="white"/>
<path id="Vector_5" d="M177.505 7.19166C177.7 7.33284 177.977 7.41754 178.282 7.41754C178.586 7.41754 178.836 7.33284 179.03 7.19166C179.224 7.05048 179.363 6.85284 179.39 6.62695H178.919C178.864 6.88107 178.642 7.02225 178.309 7.02225C177.977 7.02225 177.755 6.88107 177.672 6.62695H177.201C177.201 6.85284 177.311 7.05048 177.505 7.19166ZM179.501 8.46225V11.907H180V7.61519H179.557L177.007 11.0599V7.61519H176.508V11.9352H176.951L179.501 8.46225ZM174.872 8.46225V11.907H175.371V7.61519H174.928L172.378 11.0599V7.61519H171.851V11.9352H172.295L174.872 8.46225ZM168.608 7.61519H168.109V11.9352H168.608V7.61519ZM170.548 7.61519L168.691 9.67637L170.604 11.9352H171.269L169.301 9.64813L171.186 7.61519H170.548ZM166.141 11.5117C165.642 11.5117 165.254 11.3422 164.949 11.0317C164.644 10.7211 164.506 10.2975 164.506 9.78931C164.506 9.28107 164.644 8.85754 164.949 8.54695C165.254 8.23637 165.615 8.06695 166.086 8.06695C166.501 8.06695 166.834 8.17989 167.139 8.37754L167.361 7.98225C167.056 7.69989 166.612 7.55872 166.086 7.55872C165.448 7.55872 164.922 7.75636 164.561 8.17989C164.173 8.60342 164.007 9.13989 164.007 9.76107C164.007 10.4387 164.201 10.9752 164.589 11.3705C164.977 11.7658 165.504 11.9917 166.141 11.9917C166.418 11.9917 166.668 11.9352 166.89 11.8505C167.139 11.7658 167.333 11.6528 167.472 11.5117L167.278 11.1164C166.917 11.3705 166.557 11.5117 166.141 11.5117ZM160.93 7.61519V11.9352C161.013 11.9352 161.152 11.9352 161.374 11.9352C161.595 11.9352 161.789 11.9352 161.9 11.9352C162.427 11.9352 162.843 11.8222 163.148 11.5681C163.453 11.314 163.591 10.9752 163.591 10.5234C163.591 10.0999 163.453 9.78931 163.203 9.53519C162.926 9.30931 162.538 9.19636 162.011 9.19636C161.873 9.19636 161.679 9.19636 161.429 9.2246V7.61519H160.93ZM162.787 9.90225C162.981 10.0434 163.064 10.2693 163.064 10.5234C163.064 10.834 162.981 11.0599 162.787 11.2011C162.593 11.3422 162.316 11.427 161.983 11.427C161.956 11.427 161.762 11.427 161.457 11.3987V9.67637C161.679 9.64813 161.845 9.64813 162.011 9.64813C162.316 9.67636 162.593 9.76107 162.787 9.90225ZM159.794 11.9352V7.61519H157.271L157.216 8.49048C157.188 9.02695 157.133 9.47872 157.077 9.87401C157.022 10.2693 156.939 10.5517 156.883 10.7493C156.828 10.947 156.745 11.0881 156.662 11.2011C156.578 11.314 156.495 11.3705 156.44 11.3987C156.384 11.427 156.301 11.427 156.246 11.427V11.9634C156.384 11.9917 156.523 11.9917 156.634 11.9634C156.745 11.9352 156.856 11.8505 156.967 11.7375C157.077 11.6246 157.188 11.4552 157.271 11.2293C157.355 11.0034 157.438 10.7211 157.521 10.3258C157.604 9.95872 157.659 9.47872 157.715 8.94225L157.798 8.12342H159.323V11.9634H159.794V11.9352ZM155.83 11.9352V11.4552H153.918V10.0152H155.608V9.50695H153.918V8.12342H155.775V7.64342H153.391V11.9634H155.83V11.9352ZM150.869 8.09519V11.9352H151.368V8.09519H152.837V7.61519H149.4V8.09519H150.869ZM148.54 10.1281H147.016L147.764 8.29284L148.54 10.1281ZM146.295 11.9352L146.822 10.6364H148.734L149.289 11.9352H149.843L148.014 7.58695H147.57L145.769 11.9352H146.295ZM144.743 8.77284C144.743 8.99872 144.66 9.16813 144.521 9.30931C144.355 9.45048 144.161 9.50695 143.939 9.50695H143.274V8.12342C143.579 8.12342 143.773 8.09519 143.911 8.09519C144.466 8.09519 144.743 8.32107 144.743 8.77284ZM144.632 10.1564C144.798 10.2693 144.882 10.4387 144.882 10.6646C144.882 10.9187 144.798 11.1164 144.632 11.2575C144.466 11.3987 144.216 11.4552 143.911 11.4552C143.662 11.4552 143.44 11.4552 143.274 11.427V9.95872H143.967C144.244 9.95872 144.466 10.0152 144.632 10.1564ZM143.884 11.9352C144.355 11.9352 144.715 11.8222 144.992 11.6246C145.27 11.427 145.408 11.1164 145.408 10.6928C145.408 10.4105 145.325 10.1846 145.186 9.98695C145.02 9.81754 144.826 9.7046 144.549 9.64813C144.771 9.56342 144.937 9.45048 145.076 9.28107C145.214 9.11166 145.27 8.91401 145.27 8.63166C145.27 8.29284 145.159 8.03872 144.937 7.84107C144.715 7.64342 144.383 7.55872 143.911 7.55872C143.773 7.55872 143.385 7.55872 142.747 7.58695V11.907C143.08 11.9352 143.44 11.9352 143.884 11.9352ZM138.673 8.51872C138.978 8.17989 139.366 8.03872 139.809 8.03872C140.253 8.03872 140.641 8.20813 140.946 8.51872C141.25 8.85754 141.417 9.25284 141.417 9.76107C141.417 10.2693 141.278 10.6646 140.973 11.0034C140.668 11.3422 140.28 11.4834 139.809 11.4834C139.366 11.4834 138.978 11.314 138.673 10.9752C138.368 10.6364 138.202 10.2411 138.202 9.73284C138.229 9.28107 138.368 8.85754 138.673 8.51872ZM138.285 11.3705C138.7 11.794 139.199 11.9917 139.809 11.9917C140.419 11.9917 140.946 11.794 141.334 11.3705C141.749 10.947 141.943 10.4105 141.943 9.78931C141.943 9.13989 141.749 8.60342 141.334 8.17989C140.918 7.75636 140.419 7.55872 139.809 7.55872C139.199 7.55872 138.673 7.7846 138.285 8.20813C137.869 8.63166 137.675 9.16813 137.675 9.78931C137.675 10.4105 137.869 10.947 138.285 11.3705ZM134.848 8.09519H136.317V11.427H134.182C134.293 11.2858 134.404 11.0034 134.543 10.5517C134.681 10.0999 134.764 9.53519 134.792 8.88578L134.848 8.09519ZM133.656 12.7258V11.9352H136.926V12.7258H137.398V11.427H136.816V7.61519H134.349L134.293 8.49048C134.266 9.28107 134.155 9.93048 134.016 10.4387C133.878 10.947 133.739 11.2858 133.6 11.4552H133.157V12.754H133.656V12.7258ZM132.852 11.9352V11.4552H130.939V10.0152H132.63V9.50695H130.939V8.12342H132.797V7.64342H130.413V11.9634H132.852V11.9352ZM129.304 11.9352V7.61519H126.782L126.726 8.49048C126.699 9.02695 126.643 9.47872 126.588 9.87401C126.532 10.2693 126.449 10.5517 126.394 10.7493C126.338 10.947 126.255 11.0881 126.172 11.2011C126.089 11.314 126.006 11.3705 125.95 11.3987C125.895 11.427 125.812 11.427 125.756 11.427V11.9634C125.895 11.9917 126.033 11.9917 126.144 11.9634C126.255 11.9352 126.366 11.8505 126.477 11.7375C126.588 11.6246 126.699 11.4552 126.782 11.2293C126.865 11.0034 126.948 10.7211 127.031 10.3258C127.114 9.95872 127.17 9.47872 127.225 8.94225L127.308 8.12342H128.833V11.9634H129.304V11.9352ZM124.37 11.5117C123.871 11.5117 123.483 11.3422 123.178 11.0317C122.874 10.7211 122.735 10.2975 122.735 9.78931C122.735 9.28107 122.874 8.85754 123.178 8.54695C123.483 8.23637 123.844 8.06695 124.315 8.06695C124.731 8.06695 125.063 8.17989 125.368 8.37754L125.562 7.95401C125.257 7.67166 124.814 7.53048 124.287 7.53048C123.65 7.53048 123.123 7.72813 122.763 8.15166C122.375 8.57519 122.208 9.11166 122.208 9.73284C122.208 10.4105 122.402 10.947 122.79 11.3422C123.178 11.7375 123.705 11.9634 124.343 11.9634C124.62 11.9634 124.869 11.907 125.091 11.8222C125.34 11.7375 125.534 11.6246 125.673 11.4834L125.479 11.0881C125.146 11.3705 124.786 11.5117 124.37 11.5117ZM120.739 11.5117C120.24 11.5117 119.852 11.3422 119.547 11.0317C119.242 10.7211 119.104 10.2975 119.104 9.78931C119.104 9.28107 119.242 8.85754 119.547 8.54695C119.852 8.23637 120.213 8.06695 120.684 8.06695C121.1 8.06695 121.432 8.17989 121.737 8.37754L121.959 7.95401C121.654 7.67166 121.21 7.53048 120.684 7.53048C120.046 7.53048 119.52 7.72813 119.159 8.15166C118.771 8.57519 118.577 9.11166 118.577 9.73284C118.577 10.4105 118.771 10.947 119.159 11.3422C119.547 11.7375 120.074 11.9634 120.712 11.9634C120.989 11.9634 121.238 11.907 121.46 11.8222C121.709 11.7375 121.903 11.6246 122.042 11.4834L121.848 11.0881C121.515 11.3705 121.155 11.5117 120.739 11.5117ZM117.275 8.46225V11.907H117.773V7.61519H117.33L114.78 11.0599V7.61519H114.281V11.9352H114.724L117.275 8.46225ZM109.541 7.19166C109.735 7.33284 110.012 7.41754 110.317 7.41754C110.622 7.41754 110.872 7.33284 111.066 7.19166C111.26 7.05048 111.398 6.85284 111.426 6.62695H110.955C110.899 6.88107 110.678 7.02225 110.345 7.02225C110.012 7.02225 109.791 6.88107 109.708 6.62695H109.236C109.209 6.85284 109.319 7.05048 109.541 7.19166ZM111.509 8.46225V11.907H112.008V7.61519H111.565L109.015 11.0599V7.61519H108.516V11.9352H108.959L111.509 8.46225ZM103.582 7.61519V11.9352C103.665 11.9352 103.804 11.9352 104.025 11.9352C104.247 11.9352 104.413 11.9352 104.552 11.9352C105.079 11.9352 105.494 11.8222 105.772 11.5681C106.076 11.314 106.215 10.9752 106.215 10.5234C106.215 10.0999 106.076 9.78931 105.827 9.53519C105.578 9.30931 105.19 9.19636 104.663 9.19636C104.552 9.19636 104.358 9.19636 104.109 9.2246V7.61519H103.582ZM105.384 9.90225C105.55 10.0434 105.661 10.2693 105.661 10.5234C105.661 11.1446 105.3 11.4552 104.58 11.4552C104.58 11.4552 104.386 11.4552 104.081 11.427V9.7046C104.303 9.67637 104.469 9.67637 104.607 9.67637C104.94 9.67637 105.217 9.76107 105.384 9.90225ZM107.379 7.61519H106.88V11.9352H107.379V7.61519ZM102.473 11.9352V7.61519H101.974V9.47872H99.6737V7.61519H99.1747V11.9352H99.6737V9.98695H101.974V11.9352H102.473ZM95.6546 7.61519V11.9352C95.7377 11.9352 95.8763 11.9352 96.098 11.9352C96.3198 11.9352 96.5138 11.9352 96.6247 11.9352C97.1513 11.9352 97.5671 11.8222 97.872 11.5681C98.1769 11.314 98.3155 10.9752 98.3155 10.5234C98.3155 10.0999 98.1769 9.78931 97.9274 9.53519C97.6502 9.30931 97.2622 9.19636 96.7356 9.19636C96.597 9.19636 96.4029 9.19636 96.1535 9.2246V7.61519H95.6546ZM97.5394 9.90225C97.7334 10.0434 97.8166 10.2693 97.8166 10.5234C97.8166 10.834 97.7334 11.0599 97.5394 11.2011C97.3453 11.3422 97.0682 11.427 96.7356 11.427C96.7078 11.427 96.5138 11.427 96.2089 11.3987V9.67637C96.4307 9.64813 96.597 9.64813 96.7633 9.64813C97.0682 9.67636 97.3453 9.76107 97.5394 9.90225ZM94.5458 11.9352V7.61519H92.0235L91.9681 8.49048C91.9404 9.02695 91.8849 9.47872 91.8295 9.87401C91.774 10.2693 91.6909 10.5517 91.6355 10.7493C91.58 10.947 91.4969 11.0881 91.4137 11.2011C91.3306 11.314 91.2474 11.3705 91.192 11.3987C91.1365 11.427 91.0534 11.427 90.9979 11.427V11.9634C91.1365 11.9917 91.2751 11.9917 91.386 11.9634C91.4969 11.9352 91.6077 11.8505 91.7186 11.7375C91.8295 11.6246 91.9404 11.4552 92.0235 11.2293C92.1067 11.0034 92.1898 10.7211 92.273 10.3258C92.3561 9.95872 92.4116 9.47872 92.467 8.94225L92.5501 8.12342H94.0746V11.9634H94.5458V11.9352ZM89.6675 10.1281H88.143L88.8914 8.29284L89.6675 10.1281ZM87.4223 11.9352L87.949 10.6364H89.8615L90.3882 11.9352H90.9425L89.1409 7.58695H88.6974L86.8957 11.9352H87.4223ZM86.3136 11.9352V7.61519H85.8147V9.47872H83.5141V7.61519H83.0152V11.9352H83.5141V9.98695H85.8147V11.9352H86.3136ZM78.913 8.51872C79.2178 8.17989 79.6059 8.03872 80.0494 8.03872C80.4929 8.03872 80.8809 8.20813 81.1858 8.51872C81.4907 8.85754 81.657 9.25284 81.657 9.76107C81.657 10.2693 81.5184 10.6646 81.2135 11.0034C80.9086 11.3422 80.5206 11.4834 80.0494 11.4834C79.6059 11.4834 79.2178 11.314 78.913 10.9752C78.6081 10.6364 78.4417 10.2411 78.4417 9.73284C78.4695 9.28107 78.6081 8.85754 78.913 8.51872ZM78.5249 11.3705C78.9407 11.794 79.4396 11.9917 80.0494 11.9917C80.6592 11.9917 81.1858 11.794 81.5739 11.3705C81.9896 10.947 82.1837 10.4105 82.1837 9.78931C82.1837 9.13989 81.9896 8.60342 81.5739 8.17989C81.1581 7.75636 80.6592 7.55872 80.0494 7.55872C79.4396 7.55872 78.913 7.7846 78.4972 8.20813C78.0814 8.63166 77.8874 9.16813 77.8874 9.78931C77.9151 10.4105 78.1091 10.947 78.5249 11.3705ZM76.6401 8.46225V11.907H77.139V7.61519H76.6955L74.1455 11.0599V7.61519H73.6466V11.9352H74.09L76.6401 8.46225ZM72.4824 11.9352V12.7258H72.9536V11.427H72.3715V7.61519H71.8726V11.4552H69.6275V7.61519H69.1285V11.9352H72.4824ZM67.2714 10.1281H65.747L66.4953 8.29284L67.2714 10.1281ZM64.9986 11.9352L65.5252 10.6364H67.4377L67.9644 11.9352H68.5187L66.7171 7.58695H66.2736L64.4719 11.9352H64.9986ZM63.9176 11.9352V7.61519H63.4186V9.47872H61.1181V7.61519H60.6191V11.9352H61.1181V9.98695H63.4186V11.9352H63.9176Z" fill="white"/>
<path id="Vector_6" d="M0.0556641 11.6809V7.55859H0.887201L1.88505 10.4951C1.9682 10.7774 2.05135 10.9751 2.07907 11.1162C2.13451 10.9751 2.18994 10.7492 2.30081 10.4668L3.29866 7.61506H4.04704V11.7374H3.5204V8.23624L2.30081 11.6809H1.80189L0.582304 8.17977V11.6809H0.0556641Z" fill="white"/>
<path id="Vector_7" d="M12.1953 7.55859H12.6942V10.8339L14.9117 7.55859H15.466V11.6809H14.9671V8.43389L12.7497 11.6809H12.1953V7.55859Z" fill="white"/>
<path id="Vector_8" d="M36.9756 7.55859H37.4745V10.8339L39.6919 7.55859H40.2463V11.6809H39.7474V8.43389L37.5299 11.6809H36.9756V7.55859Z" fill="white"/>
<path id="Vector_9" d="M27.579 10.2397L28.1334 10.3809C28.0225 10.8327 27.8008 11.1715 27.5236 11.3974C27.2187 11.6232 26.8583 11.7644 26.4149 11.7644C25.9714 11.7644 25.611 11.6797 25.3339 11.4821C25.0567 11.3127 24.8349 11.0303 24.6964 10.6915C24.5578 10.3527 24.4746 9.9856 24.4746 9.5903C24.4746 9.16677 24.5578 8.79972 24.7241 8.46089C24.8904 8.1503 25.1121 7.89619 25.417 7.72677C25.7219 7.55736 26.0545 7.47266 26.4149 7.47266C26.8306 7.47266 27.191 7.5856 27.4681 7.78324C27.7453 8.00913 27.9393 8.29148 28.0502 8.65854L27.4959 8.77148C27.4127 8.46089 27.2464 8.26324 27.0801 8.12207C26.8861 7.98089 26.6643 7.92442 26.3871 7.92442C26.0545 7.92442 25.8051 8.00913 25.5833 8.1503C25.3616 8.29148 25.223 8.51736 25.1398 8.77148C25.0567 9.0256 25.0012 9.27972 25.0012 9.56207C25.0012 9.90089 25.0567 10.2115 25.1398 10.4656C25.2507 10.7197 25.417 10.9174 25.611 11.0585C25.8328 11.1997 26.0545 11.2562 26.304 11.2562C26.6089 11.2562 26.8861 11.1715 27.0801 10.9738C27.3573 10.8327 27.5236 10.5785 27.579 10.2397Z" fill="white"/>
<path id="Vector_10" d="M16.8525 0.894531L20.1233 8.51806L23.8652 0.894531H16.8525Z" fill="white"/>
<path id="Vector_11" d="M24.8075 55.727V51.4353L35.1186 48.5835L37.9181 53.3553L24.8075 55.727ZM27.1635 57.167L19.6797 58.127V36.1882L25.3064 38.56L25.3342 50.8988L24.364 50.9553V56.687H27.1635V57.167ZM27.801 50.1364L25.6945 50.8423L25.7222 39.52L27.7733 40.2541L27.801 50.1364ZM18.7373 35.2282V35.7082L15.9378 34.2682L13.1383 37.12V55.247L9.39637 53.807L2.85494 55.247L0.970126 56.687C1.44133 55.247 1.91253 54.3153 2.38374 52.8753L20.1232 21.8729L34.8137 47.8776L28.0782 49.9953V39.9717L25.7222 39.0117V38.0517L18.7373 35.2282ZM15.9932 59.5388V35.2564L18.7096 36.64V59.0588V59.5388H15.9932ZM20.1509 61.5717V63.0682H17.0742V70.72H15.3557V61.5717H20.1509ZM22.701 62.7012C23.6434 61.7976 24.8075 61.3459 26.1934 61.3459C27.0249 61.3459 27.7733 61.5153 28.4108 61.8823V63.9153C27.801 63.2659 27.0527 62.9553 26.1103 62.9553C25.2233 62.9553 24.5026 63.2376 23.9205 63.8306C23.3107 64.4235 23.0059 65.1859 23.0059 66.1459C23.0059 67.1059 23.3107 67.8682 23.8928 68.4612C24.4749 69.0259 25.1956 69.3082 26.1103 69.3082C26.9972 69.3082 27.7456 68.9976 28.4108 68.3482V70.3812C27.6347 70.7482 26.8864 70.9176 26.1657 70.9176C24.6966 70.9176 23.5048 70.4659 22.6178 69.5906C21.7031 68.687 21.2319 67.5294 21.2319 66.1459C21.2319 64.7623 21.7308 63.6047 22.701 62.7012ZM32.2636 61.5717L34.5919 66.0894L36.6708 61.5717H38.5833L34.1484 70.72H32.2359L33.6495 67.9247L30.2125 61.5717H32.2636ZM9.36865 59.0588V54.767L12.6394 56.207V59.0588H9.36865ZM3.74192 59.0588V55.727L8.89744 54.767V59.0588H3.74192ZM11.5861 70.72L10.6991 64.5929L8.64798 70.72H7.17893L5.12781 64.5929L4.24084 70.72H2.49461L3.96366 61.5717H5.82076L7.8996 68.4612L9.97844 61.5717H11.8355L13.3046 70.72H11.5861ZM36.5045 43.8117L20.1232 10.4376L3.74192 43.8117C2.35602 46.3812 1.13643 46.5506 0 43.8117V72.8941H40.2464V59.5388L19.652 59.0588V58.5788L39.304 56.207L40.2464 59.5388V43.8117C38.8605 46.6635 37.9181 46.6635 36.5045 43.8117Z" fill="white"/>
</g>
</g>
</svg>
