<svg width="48" height="85" viewBox="0 0 48 85" fill="none" xmlns="http://www.w3.org/2000/svg">
<g id="Group 4014">
<path id="Vector" d="M0.12207 12.7015V7.84766H1.10116L2.27608 11.3052C2.37399 11.6377 2.4719 11.8704 2.50453 12.0366C2.56981 11.8704 2.63508 11.6044 2.76562 11.272L3.94054 7.91415H4.82172V12.768H4.20163V8.64555L2.76562 12.7015H2.17817L0.742163 8.57906V12.7015H0.12207Z" fill="white"/>
<path id="Vector_2" d="M14.416 7.84766H15.0035V11.7042L17.6144 7.84766H18.2671V12.7015H17.6797V8.87827L15.0687 12.7015H14.416V7.84766Z" fill="white"/>
<path id="Vector_3" d="M43.5938 7.84766H44.1812V11.7042L46.7921 7.84766H47.4449V12.7015H46.8574V8.87827L44.2465 12.7015H43.5938V7.84766Z" fill="white"/>
<path id="Vector_4" d="M32.5293 11.0042L33.182 11.1704C33.0515 11.7023 32.7904 12.1013 32.464 12.3672C32.105 12.6332 31.6808 12.7994 31.1586 12.7994C30.6364 12.7994 30.2121 12.6997 29.8858 12.467C29.5594 12.2675 29.2983 11.935 29.1351 11.5361C28.9719 11.1372 28.874 10.705 28.874 10.2395C28.874 9.74083 28.9719 9.30864 29.1677 8.90969C29.3636 8.54399 29.6247 8.24478 29.9837 8.04531C30.3427 7.84583 30.7343 7.74609 31.1586 7.74609C31.6481 7.74609 32.0724 7.87908 32.3988 8.1118C32.7251 8.37776 32.9536 8.71022 33.0841 9.14241L32.4314 9.27539C32.3335 8.90969 32.1377 8.67697 31.9418 8.51074C31.7134 8.34452 31.4523 8.27802 31.1259 8.27802C30.7343 8.27802 30.4406 8.37776 30.1795 8.54399C29.9184 8.71022 29.7552 8.97618 29.6573 9.27539C29.5594 9.57461 29.4941 9.87382 29.4941 10.2063C29.4941 10.6052 29.5594 10.9709 29.6573 11.2701C29.7878 11.5693 29.9837 11.8021 30.2121 11.9683C30.4732 12.1345 30.7343 12.201 31.028 12.201C31.387 12.201 31.7134 12.1013 31.9418 11.8686C32.2682 11.7023 32.464 11.4031 32.5293 11.0042Z" fill="white"/>
<path id="Vector_5" d="M19.8994 0L23.7505 8.97633L28.1564 0H19.8994Z" fill="white"/>
<path id="Vector_6" d="M29.2663 64.5624V59.5091L41.407 56.1512L44.7033 61.7698L29.2663 64.5624ZM32.0404 66.2579L23.2285 67.3883V41.5564L29.8537 44.349L29.8864 58.8774L28.7441 58.9439V65.6928H32.0404V66.2579ZM32.791 57.9798L30.3106 58.8109L30.3433 45.4794L32.7584 46.3438L32.791 57.9798ZM22.1189 40.426V40.9912L18.8226 39.2957L15.5263 42.6535V63.9972L11.1204 62.3017L3.4182 63.9972L1.19892 65.6928C1.75374 63.9972 2.30856 62.9001 2.86338 61.2046L23.7507 24.7008L41.048 55.3201L33.1174 57.8135V46.0113L30.3433 44.881V43.7506L22.1189 40.426ZM18.8879 69.0506V40.4593L22.0863 42.0883V68.4854V69.0506H18.8879ZM23.7833 71.4443V73.2063H20.1607V82.2159H18.1372V71.4443H23.7833ZM26.7859 72.7741C27.8955 71.7102 29.2663 71.1783 30.8981 71.1783C31.8772 71.1783 32.7584 71.3778 33.509 71.81V74.2036C32.791 73.439 31.9098 73.0733 30.8002 73.0733C29.7558 73.0733 28.9073 73.4057 28.2219 74.1039C27.5039 74.8021 27.1449 75.6997 27.1449 76.8301C27.1449 77.9604 27.5039 78.858 28.1893 79.5562C28.8746 80.2211 29.7232 80.5536 30.8002 80.5536C31.8446 80.5536 32.7257 80.1879 33.509 79.4232V81.8169C32.5952 82.2491 31.714 82.4486 30.8655 82.4486C29.1357 82.4486 27.7324 81.9166 26.688 80.886C25.611 79.8222 25.0562 78.4591 25.0562 76.8301C25.0562 75.201 25.6436 73.8379 26.7859 72.7741ZM38.0455 71.4443L40.7869 76.7636L43.2347 71.4443H45.4866L40.2648 82.2159H38.0128L39.6773 78.9245L35.6304 71.4443H38.0455ZM11.0878 68.4854V63.432L14.9389 65.1276V68.4854H11.0878ZM4.46256 68.4854V64.5624L10.5329 63.432V68.4854H4.46256ZM13.6987 82.2159L12.6543 75.0015L10.2392 82.2159H8.50948L6.09439 75.0015L5.05002 82.2159H2.99392L4.72366 71.4443H6.9103L9.35803 79.5562L11.8058 71.4443H13.9924L15.7221 82.2159H13.6987ZM43.0389 50.5327L23.7507 11.2363L4.46256 50.5327C2.83074 53.5581 1.39474 53.7576 0.0566406 50.5327V84.7758H47.4448V69.0506L23.1959 68.4854V67.9202L46.3351 65.1276L47.4448 69.0506V50.5327C45.813 53.8905 44.7033 53.8905 43.0389 50.5327Z" fill="white"/>
</g>
</svg>
