<svg width="48" height="86" viewBox="0 0 48 86" fill="none" xmlns="http://www.w3.org/2000/svg">
<g id="Group 4014">
<path id="Vector" d="M0.49707 13.0316V8.17773H1.47616L2.65108 11.6353C2.74899 11.9677 2.8469 12.2005 2.87953 12.3667C2.94481 12.2005 3.01008 11.9345 3.14062 11.602L4.31554 8.24423H5.19672V13.0981H4.57663V8.97563L3.14062 13.0316H2.55317L1.11716 8.90914V13.0316H0.49707Z" fill="#0F3C73"/>
<path id="Vector_2" d="M14.791 8.17773H15.3785V12.0342L17.9894 8.17773H18.6421V13.0316H18.0547V9.20835L15.4437 13.0316H14.791V8.17773Z" fill="#0F3C73"/>
<path id="Vector_3" d="M43.9688 8.17773H44.5562V12.0342L47.1671 8.17773H47.8199V13.0316H47.2324V9.20835L44.6215 13.0316H43.9688V8.17773Z" fill="#0F3C73"/>
<path id="Vector_4" d="M32.9043 11.3342L33.557 11.5005C33.4265 12.0324 33.1654 12.4314 32.839 12.6973C32.48 12.9633 32.0558 13.1295 31.5336 13.1295C31.0114 13.1295 30.5871 13.0298 30.2608 12.7971C29.9344 12.5976 29.6733 12.2651 29.5101 11.8662C29.3469 11.4672 29.249 11.035 29.249 10.5696C29.249 10.0709 29.3469 9.63872 29.5427 9.23977C29.7386 8.87407 29.9997 8.57486 30.3587 8.37538C30.7177 8.17591 31.1093 8.07617 31.5336 8.07617C32.0231 8.07617 32.4474 8.20915 32.7738 8.44187C33.1001 8.70784 33.3286 9.0403 33.4591 9.47249L32.8064 9.60547C32.7085 9.23977 32.5127 9.00705 32.3168 8.84082C32.0884 8.67459 31.8273 8.6081 31.5009 8.6081C31.1093 8.6081 30.8156 8.70784 30.5545 8.87407C30.2934 9.0403 30.1302 9.30626 30.0323 9.60547C29.9344 9.90468 29.8691 10.2039 29.8691 10.5364C29.8691 10.9353 29.9344 11.301 30.0323 11.6002C30.1628 11.8994 30.3587 12.1321 30.5871 12.2984C30.8482 12.4646 31.1093 12.5311 31.403 12.5311C31.762 12.5311 32.0884 12.4314 32.3168 12.1986C32.6432 12.0324 32.839 11.7332 32.9043 11.3342Z" fill="#0F3C73"/>
<path id="Vector_5" d="M20.2744 0.330078L24.1255 9.30641L28.5314 0.330078H20.2744Z" fill="#0F3C73"/>
<path id="Vector_6" d="M29.6413 64.8925V59.8391L41.782 56.4813L45.0783 62.0998L29.6413 64.8925ZM32.4154 66.588L23.6035 67.7184V41.8865L30.2287 44.6791L30.2614 59.2075L29.1191 59.274V66.0228H32.4154V66.588ZM33.166 58.3098L30.6856 59.141L30.7183 45.8095L33.1334 46.6738L33.166 58.3098ZM22.4939 40.7561V41.3213L19.1976 39.6258L15.9013 42.9836V64.3273L11.4954 62.6318L3.7932 64.3273L1.57392 66.0228C2.12874 64.3273 2.68356 63.2302 3.23838 61.5347L24.1257 25.0309L41.423 55.6502L33.4924 58.1436V46.3414L30.7183 45.211V44.0807L22.4939 40.7561ZM19.2629 69.3806V40.7894L22.4613 42.4184V68.8155V69.3806H19.2629ZM24.1583 71.7743V73.5364H20.5357V82.5459H18.5122V71.7743H24.1583ZM27.1609 73.1042C28.2705 72.0403 29.6413 71.5084 31.2731 71.5084C32.2522 71.5084 33.1334 71.7078 33.884 72.14V74.5337C33.166 73.7691 32.2848 73.4034 31.1752 73.4034C30.1308 73.4034 29.2823 73.7358 28.5969 74.434C27.8789 75.1321 27.5199 76.0298 27.5199 77.1601C27.5199 78.2905 27.8789 79.1881 28.5643 79.8863C29.2496 80.5512 30.0982 80.8837 31.1752 80.8837C32.2196 80.8837 33.1007 80.5179 33.884 79.7533V82.147C32.9702 82.5792 32.089 82.7787 31.2405 82.7787C29.5107 82.7787 28.1074 82.2467 27.063 81.2161C25.986 80.1522 25.4312 78.7892 25.4312 77.1601C25.4312 75.5311 26.0186 74.168 27.1609 73.1042ZM38.4205 71.7743L41.1619 77.0936L43.6097 71.7743H45.8616L40.6398 82.5459H38.3878L40.0523 79.2546L36.0054 71.7743H38.4205ZM11.4628 68.8155V63.7621L15.3139 65.4577V68.8155H11.4628ZM4.83756 68.8155V64.8925L10.9079 63.7621V68.8155H4.83756ZM14.0737 82.5459L13.0293 75.3316L10.6142 82.5459H8.88448L6.46939 75.3316L5.42502 82.5459H3.36892L5.09866 71.7743H7.2853L9.73303 79.8863L12.1808 71.7743H14.3674L16.0971 82.5459H14.0737ZM43.4139 50.8628L24.1257 11.5664L4.83756 50.8628C3.20574 53.8882 1.76974 54.0876 0.431641 50.8628V85.1059H47.8198V69.3806L23.5709 68.8155V68.2503L46.7101 65.4577L47.8198 69.3806V50.8628C46.188 54.2206 45.0783 54.2206 43.4139 50.8628Z" fill="#0F3C73"/>
</g>
</svg>
