<svg width="24" height="25" viewBox="0 0 24 25" fill="none" xmlns="http://www.w3.org/2000/svg">
<g id="mdi:eye">
<path id="Vector" d="M12 9.00195C11.2044 9.00195 10.4413 9.31802 9.87868 9.88063C9.31607 10.4432 9 11.2063 9 12.002C9 12.7976 9.31607 13.5607 9.87868 14.1233C10.4413 14.6859 11.2044 15.002 12 15.002C12.7956 15.002 13.5587 14.6859 14.1213 14.1233C14.6839 13.5607 15 12.7976 15 12.002C15 11.2063 14.6839 10.4432 14.1213 9.88063C13.5587 9.31802 12.7956 9.00195 12 9.00195ZM12 17.002C10.6739 17.002 9.40215 16.4752 8.46447 15.5375C7.52678 14.5998 7 13.328 7 12.002C7 10.6759 7.52678 9.4041 8.46447 8.46642C9.40215 7.52874 10.6739 7.00195 12 7.00195C13.3261 7.00195 14.5979 7.52874 15.5355 8.46642C16.4732 9.4041 17 10.6759 17 12.002C17 13.328 16.4732 14.5998 15.5355 15.5375C14.5979 16.4752 13.3261 17.002 12 17.002ZM12 4.50195C7 4.50195 2.73 7.61195 1 12.002C2.73 16.392 7 19.502 12 19.502C17 19.502 21.27 16.392 23 12.002C21.27 7.61195 17 4.50195 12 4.50195Z" fill="white"/>
</g>
</svg>
