<svg width="24" height="25" viewBox="0 0 24 25" fill="none" xmlns="http://www.w3.org/2000/svg">
<g id="mdi:eye">
<path id="Vector" d="M12 9.99414C11.2044 9.99414 10.4413 10.3102 9.87868 10.8728C9.31607 11.4354 9 12.1985 9 12.9941C9 13.7898 9.31607 14.5529 9.87868 15.1155C10.4413 15.6781 11.2044 15.9941 12 15.9941C12.7956 15.9941 13.5587 15.6781 14.1213 15.1155C14.6839 14.5529 15 13.7898 15 12.9941C15 12.1985 14.6839 11.4354 14.1213 10.8728C13.5587 10.3102 12.7956 9.99414 12 9.99414ZM12 17.9941C10.6739 17.9941 9.40215 17.4674 8.46447 16.5297C7.52678 15.592 7 14.3202 7 12.9941C7 11.6681 7.52678 10.3963 8.46447 9.45861C9.40215 8.52092 10.6739 7.99414 12 7.99414C13.3261 7.99414 14.5979 8.52092 15.5355 9.45861C16.4732 10.3963 17 11.6681 17 12.9941C17 14.3202 16.4732 15.592 15.5355 16.5297C14.5979 17.4674 13.3261 17.9941 12 17.9941ZM12 5.49414C7 5.49414 2.73 8.60414 1 12.9941C2.73 17.3841 7 20.4941 12 20.4941C17 20.4941 21.27 17.3841 23 12.9941C21.27 8.60414 17 5.49414 12 5.49414Z" fill="#0F3C73"/>
</g>
</svg>
