<svg width="27" height="50" viewBox="0 0 27 50" fill="none" xmlns="http://www.w3.org/2000/svg">
<g id="Group 4014">
<path id="Vector" d="M0.09375 8.11895V5.35962H0.650346L1.31826 7.32517C1.37392 7.51416 1.42958 7.64646 1.44813 7.74096C1.48524 7.64646 1.52235 7.49526 1.59656 7.30627L2.26447 5.39742H2.76541V8.15675H2.4129V5.81321L1.59656 8.11895H1.2626L0.446261 5.77541V8.11895H0.09375Z" fill="#0F3C73"/>
<path id="Vector_2" d="M8.21973 5.35962H8.55368V7.55196L10.0379 5.35962H10.409V8.11895H10.075V5.9455L8.59079 8.11895H8.21973V5.35962Z" fill="#0F3C73"/>
<path id="Vector_3" d="M24.8066 5.35962H25.1406V7.55196L26.6249 5.35962H26.9959V8.11895H26.662V5.9455L25.1777 8.11895H24.8066V5.35962Z" fill="#0F3C73"/>
<path id="Vector_4" d="M18.5164 7.15415L18.8875 7.24865C18.8133 7.55104 18.6649 7.77784 18.4793 7.92903C18.2752 8.08023 18.0341 8.17473 17.7372 8.17473C17.4403 8.17473 17.1992 8.11803 17.0136 7.98573C16.8281 7.87234 16.6797 7.68334 16.5869 7.45655C16.4941 7.22975 16.4385 6.98406 16.4385 6.71947C16.4385 6.43597 16.4941 6.19028 16.6055 5.96348C16.7168 5.75559 16.8652 5.58549 17.0693 5.4721C17.2734 5.3587 17.496 5.302 17.7372 5.302C18.0155 5.302 18.2567 5.3776 18.4422 5.5099C18.6278 5.66109 18.7576 5.85009 18.8318 6.09578L18.4608 6.17138C18.4051 5.96348 18.2938 5.83119 18.1825 5.73669C18.0526 5.64219 17.9042 5.60439 17.7186 5.60439C17.496 5.60439 17.329 5.66109 17.1806 5.75559C17.0322 5.85009 16.9394 6.00128 16.8838 6.17138C16.8281 6.34148 16.791 6.51157 16.791 6.70057C16.791 6.92736 16.8281 7.13526 16.8838 7.30535C16.958 7.47545 17.0693 7.60774 17.1992 7.70224C17.3476 7.79674 17.496 7.83454 17.663 7.83454C17.8671 7.83454 18.0526 7.77784 18.1825 7.64554C18.368 7.55104 18.4793 7.38095 18.5164 7.15415Z" fill="#0F3C73"/>
<path id="Vector_5" d="M11.3369 0.898438L13.5262 6.00131L16.0309 0.898438H11.3369Z" fill="#0F3C73"/>
<path id="Vector_6" d="M16.6617 37.601V34.7282L23.5635 32.8194L25.4374 36.0134L16.6617 37.601ZM18.2388 38.5648L13.2294 39.2074V24.5225L16.9957 26.1101L17.0143 34.3691L16.3649 34.4069V38.2435H18.2388V38.5648ZM18.6655 33.8589L17.2554 34.3313L17.274 26.7526L18.6469 27.244L18.6655 33.8589ZM12.5986 23.8799V24.2012L10.7247 23.2373L8.85085 25.1462V37.2797L6.34617 36.3158L1.96762 37.2797L0.706002 38.2435C1.02141 37.2797 1.33681 36.656 1.65221 35.6921L13.5263 14.9404L23.3594 32.3469L18.851 33.7644V27.055L17.274 26.4124V25.7699L12.5986 23.8799ZM10.7618 40.1524V23.8988L12.58 24.8249V39.8311V40.1524H10.7618ZM13.5448 41.5132V42.5148H11.4854V47.6366H10.3351V41.5132H13.5448ZM15.2517 42.2691C15.8825 41.6644 16.6617 41.362 17.5894 41.362C18.146 41.362 18.6469 41.4754 19.0737 41.7211V43.0818C18.6655 42.6471 18.1646 42.4392 17.5337 42.4392C16.94 42.4392 16.4577 42.6282 16.068 43.0251C15.6599 43.422 15.4558 43.9323 15.4558 44.5749C15.4558 45.2175 15.6599 45.7277 16.0495 46.1246C16.4391 46.5026 16.9215 46.6916 17.5337 46.6916C18.1274 46.6916 18.6284 46.4837 19.0737 46.049V47.4098C18.5542 47.6555 18.0532 47.7689 17.5709 47.7689C16.5875 47.7689 15.7897 47.4665 15.196 46.8806C14.5838 46.2758 14.2684 45.501 14.2684 44.5749C14.2684 43.6488 14.6023 42.8739 15.2517 42.2691ZM21.6526 41.5132L23.211 44.5371L24.6025 41.5132H25.8827L22.9142 47.6366H21.634L22.5802 45.7655L20.2796 41.5132H21.6526ZM6.32762 39.8311V36.9584L8.51689 37.9222V39.8311H6.32762ZM2.56132 39.8311V37.601L6.01221 36.9584V39.8311H2.56132ZM7.81187 47.6366L7.21817 43.5354L5.84524 47.6366H4.86192L3.48898 43.5354L2.89528 47.6366H1.72643L2.70975 41.5132H3.95281L5.3443 46.1246L6.73579 41.5132H7.97885L8.96217 47.6366H7.81187ZM24.4912 29.6254L13.5263 7.28613L2.56132 29.6254C1.63366 31.3452 0.817321 31.4586 0.0566406 29.6254V49.0919H26.9959V40.1524L13.2109 39.8311V39.5098L26.3651 37.9222L26.9959 40.1524V29.6254C26.0682 31.5342 25.4374 31.5342 24.4912 29.6254Z" fill="#0F3C73"/>
</g>
</svg>
